<svg width="30" height="30" viewBox="0 0 30 30" fill="none" xmlns="http://www.w3.org/2000/svg">
<path d="M19.485 20.154L13.223 13.892C12.723 14.318 12.148 14.6476 11.498 14.881C10.848 15.1143 10.1947 15.231 9.53798 15.231C7.93665 15.231 6.58132 14.6766 5.47198 13.568C4.36265 12.4586 3.80798 11.1036 3.80798 9.50298C3.80798 7.90232 4.36198 6.54665 5.46998 5.43598C6.57865 4.32465 7.93332 3.76898 9.53398 3.76898C11.1353 3.76898 12.4913 4.32365 13.602 5.43298C14.7127 6.54232 15.268 7.89798 15.268 9.49998C15.268 10.1946 15.145 10.867 14.899 11.517C14.6523 12.167 14.329 12.723 13.929 13.185L20.191 19.446L19.485 20.154ZM9.53798 14.23C10.8647 14.23 11.985 13.7733 12.899 12.86C13.8123 11.9466 14.269 10.8263 14.269 9.49898C14.269 8.17231 13.8123 7.05232 12.899 6.13898C11.9856 5.22565 10.8656 4.76898 9.53898 4.76898C8.21232 4.76898 7.09198 5.22565 6.17798 6.13898C5.26465 7.05232 4.80798 8.17231 4.80798 9.49898C4.80798 10.8256 5.26465 11.9456 6.17798 12.859C7.09132 13.7723 8.21132 14.23 9.53798 14.23Z" fill="#FCFCFC"/>
</svg>
